<mxfile host="app.diagrams.net" modified="2023-07-01T08:24:42.363Z" agent="Mozilla/5.0 (Windows NT 10.0; Win64; x64; rv:109.0) Gecko/20100101 Firefox/114.0" etag="Ef6TZjHPJ3evC1mCJHQW" version="21.5.2" type="github">
  <diagram name="Page-1" id="64c3da0e-402f-94eb-ee01-a36477274f13">
    <mxGraphModel dx="989" dy="539" grid="1" gridSize="10" guides="1" tooltips="1" connect="1" arrows="1" fold="1" page="1" pageScale="1" pageWidth="1169" pageHeight="826" background="none" math="0" shadow="0">
      <root>
        <mxCell id="0" />
        <mxCell id="1" parent="0" />
        <mxCell id="bbqUjT4avHyMk_ImWk4W-242" value="TOP" style="rounded=0;whiteSpace=wrap;html=1;" vertex="1" parent="1">
          <mxGeometry x="600" y="80" width="40" height="20" as="geometry" />
        </mxCell>
        <mxCell id="bbqUjT4avHyMk_ImWk4W-243" value="&lt;div&gt;AND&lt;/div&gt;" style="rounded=0;whiteSpace=wrap;html=1;strokeColor=#8ea8cd;fillColor=#dae8fc;" vertex="1" parent="1">
          <mxGeometry x="600" y="100" width="40" height="20" as="geometry" />
        </mxCell>
        <mxCell id="bbqUjT4avHyMk_ImWk4W-245" value="" style="rounded=0;whiteSpace=wrap;html=1;" vertex="1" parent="1">
          <mxGeometry x="440" y="140" width="40" height="20" as="geometry" />
        </mxCell>
        <mxCell id="bbqUjT4avHyMk_ImWk4W-297" style="rounded=0;orthogonalLoop=1;jettySize=auto;html=1;exitX=0.25;exitY=1;exitDx=0;exitDy=0;entryX=0.5;entryY=0;entryDx=0;entryDy=0;" edge="1" parent="1" source="bbqUjT4avHyMk_ImWk4W-246" target="bbqUjT4avHyMk_ImWk4W-249">
          <mxGeometry relative="1" as="geometry" />
        </mxCell>
        <mxCell id="bbqUjT4avHyMk_ImWk4W-299" style="rounded=0;orthogonalLoop=1;jettySize=auto;html=1;exitX=0.75;exitY=1;exitDx=0;exitDy=0;entryX=0.5;entryY=0;entryDx=0;entryDy=0;" edge="1" parent="1" source="bbqUjT4avHyMk_ImWk4W-246" target="bbqUjT4avHyMk_ImWk4W-251">
          <mxGeometry relative="1" as="geometry" />
        </mxCell>
        <mxCell id="bbqUjT4avHyMk_ImWk4W-246" value="" style="rounded=0;whiteSpace=wrap;html=1;strokeColor=#8ea8cd;fillColor=#dae8fc;" vertex="1" parent="1">
          <mxGeometry x="440" y="160" width="40" height="20" as="geometry" />
        </mxCell>
        <mxCell id="bbqUjT4avHyMk_ImWk4W-249" value="" style="rounded=0;whiteSpace=wrap;html=1;" vertex="1" parent="1">
          <mxGeometry x="360" y="200" width="40" height="20" as="geometry" />
        </mxCell>
        <mxCell id="bbqUjT4avHyMk_ImWk4W-301" style="rounded=0;orthogonalLoop=1;jettySize=auto;html=1;exitX=0.75;exitY=1;exitDx=0;exitDy=0;entryX=0.5;entryY=0;entryDx=0;entryDy=0;" edge="1" parent="1" source="bbqUjT4avHyMk_ImWk4W-250" target="bbqUjT4avHyMk_ImWk4W-253">
          <mxGeometry relative="1" as="geometry" />
        </mxCell>
        <mxCell id="bbqUjT4avHyMk_ImWk4W-250" value="" style="rounded=0;whiteSpace=wrap;html=1;strokeColor=#8ea8cd;fillColor=#dae8fc;" vertex="1" parent="1">
          <mxGeometry x="360" y="220" width="40" height="20" as="geometry" />
        </mxCell>
        <mxCell id="bbqUjT4avHyMk_ImWk4W-251" value="" style="rounded=0;whiteSpace=wrap;html=1;" vertex="1" parent="1">
          <mxGeometry x="520" y="200" width="40" height="20" as="geometry" />
        </mxCell>
        <mxCell id="bbqUjT4avHyMk_ImWk4W-302" style="rounded=0;orthogonalLoop=1;jettySize=auto;html=1;exitX=0.5;exitY=1;exitDx=0;exitDy=0;entryX=0.5;entryY=0;entryDx=0;entryDy=0;" edge="1" parent="1" source="bbqUjT4avHyMk_ImWk4W-252" target="bbqUjT4avHyMk_ImWk4W-265">
          <mxGeometry relative="1" as="geometry" />
        </mxCell>
        <mxCell id="bbqUjT4avHyMk_ImWk4W-252" value="" style="rounded=0;whiteSpace=wrap;html=1;strokeColor=#8ea8cd;fillColor=#dae8fc;" vertex="1" parent="1">
          <mxGeometry x="520" y="220" width="40" height="20" as="geometry" />
        </mxCell>
        <mxCell id="bbqUjT4avHyMk_ImWk4W-253" value="" style="rounded=0;whiteSpace=wrap;html=1;" vertex="1" parent="1">
          <mxGeometry x="410" y="260" width="40" height="20" as="geometry" />
        </mxCell>
        <mxCell id="bbqUjT4avHyMk_ImWk4W-254" value="" style="rounded=0;whiteSpace=wrap;html=1;strokeColor=#8ea8cd;fillColor=#dae8fc;" vertex="1" parent="1">
          <mxGeometry x="410" y="280" width="40" height="20" as="geometry" />
        </mxCell>
        <mxCell id="bbqUjT4avHyMk_ImWk4W-255" value="" style="rounded=0;whiteSpace=wrap;html=1;" vertex="1" parent="1">
          <mxGeometry x="310" y="260" width="40" height="20" as="geometry" />
        </mxCell>
        <mxCell id="bbqUjT4avHyMk_ImWk4W-256" value="" style="rounded=0;whiteSpace=wrap;html=1;strokeColor=#8ea8cd;fillColor=#dae8fc;" vertex="1" parent="1">
          <mxGeometry x="310" y="280" width="40" height="20" as="geometry" />
        </mxCell>
        <mxCell id="bbqUjT4avHyMk_ImWk4W-259" value="" style="rounded=0;whiteSpace=wrap;html=1;" vertex="1" parent="1">
          <mxGeometry x="280" y="320" width="40" height="20" as="geometry" />
        </mxCell>
        <mxCell id="bbqUjT4avHyMk_ImWk4W-260" value="" style="rounded=0;whiteSpace=wrap;html=1;strokeColor=#8ea8cd;fillColor=#dae8fc;" vertex="1" parent="1">
          <mxGeometry x="280" y="340" width="40" height="20" as="geometry" />
        </mxCell>
        <mxCell id="bbqUjT4avHyMk_ImWk4W-261" value="" style="rounded=0;whiteSpace=wrap;html=1;" vertex="1" parent="1">
          <mxGeometry x="380" y="320" width="40" height="20" as="geometry" />
        </mxCell>
        <mxCell id="bbqUjT4avHyMk_ImWk4W-262" value="" style="rounded=0;whiteSpace=wrap;html=1;strokeColor=#8ea8cd;fillColor=#dae8fc;" vertex="1" parent="1">
          <mxGeometry x="380" y="340" width="40" height="20" as="geometry" />
        </mxCell>
        <mxCell id="bbqUjT4avHyMk_ImWk4W-263" value="" style="rounded=0;whiteSpace=wrap;html=1;" vertex="1" parent="1">
          <mxGeometry x="470" y="260" width="40" height="20" as="geometry" />
        </mxCell>
        <mxCell id="bbqUjT4avHyMk_ImWk4W-264" value="" style="rounded=0;whiteSpace=wrap;html=1;strokeColor=#8ea8cd;fillColor=#dae8fc;" vertex="1" parent="1">
          <mxGeometry x="470" y="280" width="40" height="20" as="geometry" />
        </mxCell>
        <mxCell id="bbqUjT4avHyMk_ImWk4W-265" value="" style="rounded=0;whiteSpace=wrap;html=1;" vertex="1" parent="1">
          <mxGeometry x="570" y="260" width="40" height="20" as="geometry" />
        </mxCell>
        <mxCell id="bbqUjT4avHyMk_ImWk4W-266" value="" style="rounded=0;whiteSpace=wrap;html=1;strokeColor=#8ea8cd;fillColor=#dae8fc;" vertex="1" parent="1">
          <mxGeometry x="570" y="280" width="40" height="20" as="geometry" />
        </mxCell>
        <mxCell id="bbqUjT4avHyMk_ImWk4W-300" value="" style="endArrow=classic;html=1;rounded=0;entryX=0.5;entryY=0;entryDx=0;entryDy=0;exitX=0.25;exitY=1;exitDx=0;exitDy=0;" edge="1" parent="1" source="bbqUjT4avHyMk_ImWk4W-250" target="bbqUjT4avHyMk_ImWk4W-255">
          <mxGeometry width="50" height="50" relative="1" as="geometry">
            <mxPoint x="380" y="290" as="sourcePoint" />
            <mxPoint x="380" y="310.71067811865476" as="targetPoint" />
          </mxGeometry>
        </mxCell>
        <mxCell id="bbqUjT4avHyMk_ImWk4W-303" value="" style="rounded=0;whiteSpace=wrap;html=1;" vertex="1" parent="1">
          <mxGeometry x="230" y="530" width="20" height="20" as="geometry" />
        </mxCell>
        <mxCell id="bbqUjT4avHyMk_ImWk4W-304" value="&lt;font style=&quot;font-size: 8px;&quot;&gt;act&lt;/font&gt;" style="rounded=0;whiteSpace=wrap;html=1;strokeColor=#666666;fillColor=#aaa;" vertex="1" parent="1">
          <mxGeometry x="230" y="550" width="20" height="20" as="geometry" />
        </mxCell>
        <mxCell id="bbqUjT4avHyMk_ImWk4W-307" value="" style="rounded=0;whiteSpace=wrap;html=1;" vertex="1" parent="1">
          <mxGeometry x="260" y="530" width="20" height="20" as="geometry" />
        </mxCell>
        <mxCell id="bbqUjT4avHyMk_ImWk4W-308" value="&lt;font style=&quot;font-size: 8px;&quot;&gt;act&lt;/font&gt;" style="rounded=0;whiteSpace=wrap;html=1;strokeColor=#666666;fillColor=#aaa;" vertex="1" parent="1">
          <mxGeometry x="260" y="550" width="20" height="20" as="geometry" />
        </mxCell>
        <mxCell id="bbqUjT4avHyMk_ImWk4W-309" value="" style="rounded=0;whiteSpace=wrap;html=1;" vertex="1" parent="1">
          <mxGeometry x="290" y="480" width="20" height="20" as="geometry" />
        </mxCell>
        <mxCell id="bbqUjT4avHyMk_ImWk4W-310" value="&lt;font style=&quot;font-size: 8px;&quot;&gt;act&lt;/font&gt;" style="rounded=0;whiteSpace=wrap;html=1;strokeColor=#666666;fillColor=#aaa;" vertex="1" parent="1">
          <mxGeometry x="290" y="500" width="20" height="20" as="geometry" />
        </mxCell>
        <mxCell id="bbqUjT4avHyMk_ImWk4W-311" value="" style="rounded=0;whiteSpace=wrap;html=1;" vertex="1" parent="1">
          <mxGeometry x="330" y="530" width="20" height="20" as="geometry" />
        </mxCell>
        <mxCell id="bbqUjT4avHyMk_ImWk4W-312" value="&lt;font style=&quot;font-size: 8px;&quot;&gt;act&lt;/font&gt;" style="rounded=0;whiteSpace=wrap;html=1;strokeColor=#666666;fillColor=#aaa;" vertex="1" parent="1">
          <mxGeometry x="330" y="550" width="20" height="20" as="geometry" />
        </mxCell>
        <mxCell id="bbqUjT4avHyMk_ImWk4W-313" value="" style="rounded=0;whiteSpace=wrap;html=1;" vertex="1" parent="1">
          <mxGeometry x="360" y="530" width="20" height="20" as="geometry" />
        </mxCell>
        <mxCell id="bbqUjT4avHyMk_ImWk4W-314" value="&lt;font style=&quot;font-size: 8px;&quot;&gt;act&lt;/font&gt;" style="rounded=0;whiteSpace=wrap;html=1;strokeColor=#666666;fillColor=#aaa;" vertex="1" parent="1">
          <mxGeometry x="360" y="550" width="20" height="20" as="geometry" />
        </mxCell>
        <mxCell id="bbqUjT4avHyMk_ImWk4W-315" value="" style="rounded=0;whiteSpace=wrap;html=1;" vertex="1" parent="1">
          <mxGeometry x="430" y="480" width="20" height="20" as="geometry" />
        </mxCell>
        <mxCell id="bbqUjT4avHyMk_ImWk4W-316" value="&lt;font style=&quot;font-size: 8px;&quot;&gt;act&lt;/font&gt;" style="rounded=0;whiteSpace=wrap;html=1;strokeColor=#666666;fillColor=#aaa;" vertex="1" parent="1">
          <mxGeometry x="430" y="500" width="20" height="20" as="geometry" />
        </mxCell>
        <mxCell id="bbqUjT4avHyMk_ImWk4W-317" value="" style="rounded=0;whiteSpace=wrap;html=1;" vertex="1" parent="1">
          <mxGeometry x="460" y="480" width="20" height="20" as="geometry" />
        </mxCell>
        <mxCell id="bbqUjT4avHyMk_ImWk4W-318" value="&lt;font style=&quot;font-size: 8px;&quot;&gt;act&lt;/font&gt;" style="rounded=0;whiteSpace=wrap;html=1;strokeColor=#666666;fillColor=#aaa;" vertex="1" parent="1">
          <mxGeometry x="460" y="500" width="20" height="20" as="geometry" />
        </mxCell>
        <mxCell id="bbqUjT4avHyMk_ImWk4W-321" value="" style="rounded=0;whiteSpace=wrap;html=1;" vertex="1" parent="1">
          <mxGeometry x="390" y="480" width="20" height="20" as="geometry" />
        </mxCell>
        <mxCell id="bbqUjT4avHyMk_ImWk4W-322" value="&lt;font style=&quot;font-size: 8px;&quot;&gt;act&lt;/font&gt;" style="rounded=0;whiteSpace=wrap;html=1;strokeColor=#666666;fillColor=#aaa;" vertex="1" parent="1">
          <mxGeometry x="390" y="500" width="20" height="20" as="geometry" />
        </mxCell>
        <mxCell id="bbqUjT4avHyMk_ImWk4W-323" value="" style="rounded=0;whiteSpace=wrap;html=1;" vertex="1" parent="1">
          <mxGeometry x="500" y="480" width="20" height="20" as="geometry" />
        </mxCell>
        <mxCell id="bbqUjT4avHyMk_ImWk4W-324" value="&lt;font style=&quot;font-size: 8px;&quot;&gt;act&lt;/font&gt;" style="rounded=0;whiteSpace=wrap;html=1;strokeColor=#666666;fillColor=#aaa;" vertex="1" parent="1">
          <mxGeometry x="500" y="500" width="20" height="20" as="geometry" />
        </mxCell>
        <mxCell id="bbqUjT4avHyMk_ImWk4W-325" value="" style="rounded=0;whiteSpace=wrap;html=1;" vertex="1" parent="1">
          <mxGeometry x="530" y="480" width="20" height="20" as="geometry" />
        </mxCell>
        <mxCell id="bbqUjT4avHyMk_ImWk4W-326" value="&lt;font style=&quot;font-size: 8px;&quot;&gt;act&lt;/font&gt;" style="rounded=0;whiteSpace=wrap;html=1;strokeColor=#666666;fillColor=#aaa;" vertex="1" parent="1">
          <mxGeometry x="530" y="500" width="20" height="20" as="geometry" />
        </mxCell>
        <mxCell id="bbqUjT4avHyMk_ImWk4W-336" value="" style="rounded=0;whiteSpace=wrap;html=1;" vertex="1" parent="1">
          <mxGeometry x="560" y="530" width="20" height="20" as="geometry" />
        </mxCell>
        <mxCell id="bbqUjT4avHyMk_ImWk4W-337" value="&lt;font style=&quot;font-size: 8px;&quot;&gt;act&lt;/font&gt;" style="rounded=0;whiteSpace=wrap;html=1;strokeColor=#666666;fillColor=#aaa;" vertex="1" parent="1">
          <mxGeometry x="560" y="550" width="20" height="20" as="geometry" />
        </mxCell>
        <mxCell id="bbqUjT4avHyMk_ImWk4W-338" value="" style="rounded=0;whiteSpace=wrap;html=1;" vertex="1" parent="1">
          <mxGeometry x="590" y="530" width="20" height="20" as="geometry" />
        </mxCell>
        <mxCell id="bbqUjT4avHyMk_ImWk4W-339" value="&lt;font style=&quot;font-size: 8px;&quot;&gt;act&lt;/font&gt;" style="rounded=0;whiteSpace=wrap;html=1;strokeColor=#666666;fillColor=#aaa;" vertex="1" parent="1">
          <mxGeometry x="590" y="550" width="20" height="20" as="geometry" />
        </mxCell>
        <mxCell id="bbqUjT4avHyMk_ImWk4W-340" value="" style="rounded=0;whiteSpace=wrap;html=1;" vertex="1" parent="1">
          <mxGeometry x="620" y="530" width="20" height="20" as="geometry" />
        </mxCell>
        <mxCell id="bbqUjT4avHyMk_ImWk4W-341" value="&lt;font style=&quot;font-size: 8px;&quot;&gt;act&lt;/font&gt;" style="rounded=0;whiteSpace=wrap;html=1;strokeColor=#666666;fillColor=#aaa;" vertex="1" parent="1">
          <mxGeometry x="620" y="550" width="20" height="20" as="geometry" />
        </mxCell>
        <mxCell id="bbqUjT4avHyMk_ImWk4W-342" value="" style="rounded=0;whiteSpace=wrap;html=1;" vertex="1" parent="1">
          <mxGeometry x="650" y="530" width="20" height="20" as="geometry" />
        </mxCell>
        <mxCell id="bbqUjT4avHyMk_ImWk4W-343" value="&lt;font style=&quot;font-size: 8px;&quot;&gt;act&lt;/font&gt;" style="rounded=0;whiteSpace=wrap;html=1;strokeColor=#666666;fillColor=#aaa;" vertex="1" parent="1">
          <mxGeometry x="650" y="550" width="20" height="20" as="geometry" />
        </mxCell>
        <mxCell id="bbqUjT4avHyMk_ImWk4W-344" value="" style="rounded=0;whiteSpace=wrap;html=1;" vertex="1" parent="1">
          <mxGeometry x="680" y="530" width="20" height="20" as="geometry" />
        </mxCell>
        <mxCell id="bbqUjT4avHyMk_ImWk4W-345" value="&lt;font style=&quot;font-size: 8px;&quot;&gt;act&lt;/font&gt;" style="rounded=0;whiteSpace=wrap;html=1;strokeColor=#666666;fillColor=#aaa;" vertex="1" parent="1">
          <mxGeometry x="680" y="550" width="20" height="20" as="geometry" />
        </mxCell>
        <mxCell id="bbqUjT4avHyMk_ImWk4W-346" value="" style="rounded=0;whiteSpace=wrap;html=1;" vertex="1" parent="1">
          <mxGeometry x="710" y="530" width="20" height="20" as="geometry" />
        </mxCell>
        <mxCell id="bbqUjT4avHyMk_ImWk4W-347" value="&lt;font style=&quot;font-size: 8px;&quot;&gt;act&lt;/font&gt;" style="rounded=0;whiteSpace=wrap;html=1;strokeColor=#666666;fillColor=#aaa;" vertex="1" parent="1">
          <mxGeometry x="710" y="550" width="20" height="20" as="geometry" />
        </mxCell>
      </root>
    </mxGraphModel>
  </diagram>
</mxfile>
